<?xml version="1.0" encoding="UTF-8" standalone="no"?>
<svg
   height="20"
   viewBox="0 -960 960 960"
   width="20"
   version="1.1"
   id="svg1"
   sodipodi:docname="download_dark.svg"
   inkscape:version="1.3 (0e150ed6c4, 2023-07-21)"
   xmlns:inkscape="http://www.inkscape.org/namespaces/inkscape"
   xmlns:sodipodi="http://sodipodi.sourceforge.net/DTD/sodipodi-0.dtd"
   xmlns="http://www.w3.org/2000/svg"
   xmlns:svg="http://www.w3.org/2000/svg">
  <defs
     id="defs1" />
  <sodipodi:namedview
     id="namedview1"
     pagecolor="#505050"
     bordercolor="#eeeeee"
     borderopacity="1"
     inkscape:showpageshadow="0"
     inkscape:pageopacity="0"
     inkscape:pagecheckerboard="0"
     inkscape:deskcolor="#505050"
     showguides="true"
     inkscape:zoom="21.991406"
     inkscape:cx="9.7992824"
     inkscape:cy="16.938435"
     inkscape:window-width="1728"
     inkscape:window-height="1083"
     inkscape:window-x="0"
     inkscape:window-y="0"
     inkscape:window-maximized="1"
     inkscape:current-layer="svg1">
    <sodipodi:guide
       position="0,960"
       orientation="0,20"
       id="guide1"
       inkscape:locked="false" />
    <sodipodi:guide
       position="960,960"
       orientation="20,0"
       id="guide2"
       inkscape:locked="false" />
    <sodipodi:guide
       position="960,0"
       orientation="0,-20"
       id="guide3"
       inkscape:locked="false" />
    <sodipodi:guide
       position="0,0"
       orientation="-20,0"
       id="guide4"
       inkscape:locked="false" />
  </sodipodi:namedview>
  <path
     d="m 479.70689,-304.81434 q -8.97339,0 -16.71282,-3.60666 -7.73796,-3.60812 -13.77005,-9.92158 L 275.78673,-491.77841 q -10.42719,-10.01245 -10.48288,-24.36871 -0.0571,-14.3548 11.24788,-25.34622 11.41057,-10.70857 24.90949,-10.06081 13.49894,0.64922 24.20897,11.3578 l 119.32727,120.5114 v -476.5792 q 0,-14.30497 10.11943,-24.65303 10.11797,-10.34952 24.57388,-10.34952 14.45738,0 25.02527,10.34952 10.56788,10.34806 10.56788,24.65303 v 476.5792 l 120.5114,-120.5114 q 9.93919,-10.4272 23.82355,-10.48435 13.88436,-0.0557 25.5763,10.65289 11.02366,10.99142 10.51658,24.99888 -0.50853,14.00601 -11.21711,24.71605 l -173.43728,171.9703 q -6.89968,6.31346 -14.63764,9.92158 -7.73943,3.60666 -16.71283,3.60666 z M 186.98924,-99.078401 q -36.95609,0 -62.43273,-25.697939 -25.478112,-25.69648 -25.478112,-62.62765 v -50.50338 q 0,-14.58782 10.260122,-24.93586 10.26012,-10.34952 24.71604,-10.34952 14.17453,0 24.74242,10.34952 10.56788,10.34804 10.56788,24.93586 v 50.50338 q 0,6.76485 5.63787,12.40126 5.6364,5.63786 12.40126,5.63786 h 585.19202 q 6.76485,0 12.40126,-5.63786 5.63787,-5.63641 5.63787,-12.40126 v -50.50338 q 0,-14.58782 10.25865,-24.93586 10.26013,-10.34952 24.71604,-10.34952 14.17454,0 24.74243,10.34952 10.56934,10.34804 10.56934,24.93586 v 50.50338 q 0,36.93117 -25.71552,62.62765 -25.71406,25.697939 -62.66869,25.697939 z"
     id="path1"
     style="stroke-width:1.46553;fill:#ffffff" />
</svg>
