<?xml version="1.0" encoding="UTF-8" standalone="no"?>
<svg
   height="20"
   viewBox="0 -960 960 960"
   width="20"
   version="1.1"
   id="svg1"
   sodipodi:docname="menu_dark.svg"
   inkscape:version="1.3 (0e150ed6c4, 2023-07-21)"
   xmlns:inkscape="http://www.inkscape.org/namespaces/inkscape"
   xmlns:sodipodi="http://sodipodi.sourceforge.net/DTD/sodipodi-0.dtd"
   xmlns="http://www.w3.org/2000/svg"
   xmlns:svg="http://www.w3.org/2000/svg">
  <defs
     id="defs1" />
  <sodipodi:namedview
     id="namedview1"
     pagecolor="#505050"
     bordercolor="#eeeeee"
     borderopacity="1"
     inkscape:showpageshadow="0"
     inkscape:pageopacity="0"
     inkscape:pagecheckerboard="0"
     inkscape:deskcolor="#505050"
     inkscape:zoom="42.65"
     inkscape:cx="10.011723"
     inkscape:cy="10"
     inkscape:window-width="852"
     inkscape:window-height="1067"
     inkscape:window-x="26"
     inkscape:window-y="23"
     inkscape:window-maximized="0"
     inkscape:current-layer="svg1" />
  <path
     d="M204.808-298.154q-6.07 0-10.362-4.239-4.292-4.24-4.292-10.231 0-5.607 4.292-10.03 4.292-4.423 10.362-4.423h550.769q5.685 0 9.977 4.24 4.292 4.239 4.292 9.846 0 5.991-4.292 10.414t-9.977 4.423H204.808Zm0-167.692q-6.07 0-10.362-4.24-4.292-4.239-4.292-10.23 0-5.607 4.292-10.03 4.292-4.423 10.362-4.423h550.769q5.685 0 9.977 4.239 4.292 4.24 4.292 9.846 0 5.992-4.292 10.415-4.292 4.423-9.977 4.423H204.808Zm0-167.692q-6.07 0-10.362-4.24t-4.292-10.231q0-5.606 4.292-10.03 4.292-4.423 10.362-4.423h550.769q5.685 0 9.977 4.24 4.292 4.239 4.292 9.846 0 5.991-4.292 10.414-4.292 4.424-9.977 4.424H204.808Z"
     id="path1"
     style="fill:#33994d;fill-opacity:1" />
</svg>
