<?xml version="1.0" encoding="UTF-8" standalone="no"?>
<svg
   height="20"
   viewBox="0 -960 960 960"
   width="20"
   version="1.1"
   id="svg1"
   sodipodi:docname="how_to_reg_FILL0_wght300_GRAD-25_opsz20.svg"
   inkscape:version="1.3 (0e150ed6c4, 2023-07-21)"
   xmlns:inkscape="http://www.inkscape.org/namespaces/inkscape"
   xmlns:sodipodi="http://sodipodi.sourceforge.net/DTD/sodipodi-0.dtd"
   xmlns="http://www.w3.org/2000/svg"
   xmlns:svg="http://www.w3.org/2000/svg">
  <defs
     id="defs1" />
  <sodipodi:namedview
     id="namedview1"
     pagecolor="#505050"
     bordercolor="#eeeeee"
     borderopacity="1"
     inkscape:showpageshadow="0"
     inkscape:pageopacity="0"
     inkscape:pagecheckerboard="0"
     inkscape:deskcolor="#505050"
     inkscape:zoom="27.322656"
     inkscape:cx="10.998199"
     inkscape:cy="11.217797"
     inkscape:window-width="1728"
     inkscape:window-height="1083"
     inkscape:window-x="0"
     inkscape:window-y="0"
     inkscape:window-maximized="1"
     inkscape:current-layer="svg1">
    <sodipodi:guide
       position="0,960"
       orientation="0,20"
       id="guide1"
       inkscape:locked="false" />
    <sodipodi:guide
       position="960,960"
       orientation="20,0"
       id="guide2"
       inkscape:locked="false" />
    <sodipodi:guide
       position="960,0"
       orientation="0,-20"
       id="guide3"
       inkscape:locked="false" />
    <sodipodi:guide
       position="0,0"
       orientation="-20,0"
       id="guide4"
       inkscape:locked="false" />
  </sodipodi:namedview>
  <path
     d="M 503.95112,-152.46221 H 75.302562 q -26.67048,0 -45.281207,-18.61072 -18.610727,-18.61073 -18.610727,-45.28252 v -20.11989 q 0,-31.92302 14.800471,-51.84098 14.800471,-19.91927 37.644961,-34.2923 75.03949,-43.67241 144.05154,-61.85176 69.01205,-18.17936 145.36271,-18.17936 30.15688,0 58.69971,3.50476 28.54283,3.50475 56.58086,10.26251 l -51.43584,53.80643 q -21.11505,-2.37059 -35.77261,-3.52967 -14.65755,-1.16038 -28.07212,-1.16038 -61.67606,0 -123.90543,15.05353 -62.22938,15.05221 -132.174975,54.28762 -13.084158,6.88232 -17.990549,14.83195 -4.905082,7.94961 -4.905082,19.10765 v 21.12948 H 443.43806 Z m 157.34286,-69.74106 220.83226,-219.75055 q 10.23629,-10.25858 21.33009,-10.71224 11.09379,-0.45367 22.49179,10.69126 11.14362,11.39668 11.14362,22.6924 0,11.29572 -10.97449,22.27151 l -235.42294,235.6642 q -12.04833,12.56756 -28.49039,12.56756 -16.44205,0 -28.69624,-12.50724 L 529.32092,-265.47315 q -10.48934,-10.2376 -10.61522,-21.3314 -0.12718,-11.09379 11.01775,-22.3646 11.14493,-11.27081 22.44065,-11.27081 11.29571,0 22.6924,11.25508 z M 353.14444,-495.07975 q -66.26384,0 -111.71288,-45.57491 -45.44904,-45.57491 -45.44904,-111.71287 0,-66.13797 45.77683,-111.71288 45.77683,-45.57491 111.9148,-45.57491 66.13665,0 111.51096,45.57491 45.37299,45.57491 45.37299,111.71288 0,66.13796 -45.57491,111.71287 -45.57491,45.57491 -111.83875,45.57491 z m 44.40272,233.33819 z m -43.99888,-296.22183 q 39.05709,0 66.59163,-27.81252 27.53454,-27.81382 27.53454,-66.86959 0,-39.0571 -27.81251,-66.59164 -27.81382,-27.53453 -66.8696,-27.53453 -39.30883,0 -66.71751,27.8125 -27.40866,27.81382 -27.40866,66.8696 0,39.05709 27.68663,66.59163 27.68795,27.53455 66.99548,27.53455 z m -0.27797,-94.40414 z"
     id="path1"
     style="stroke-width:1.31117" />
</svg>
